<svg xmlns="http://www.w3.org/2000/svg" viewBox="0 0 800 480" font-family="ui-sans-serif, system-ui, -apple-system, 'Segoe UI', Roboto, sans-serif">
  <rect width="800" height="480" fill="#FFF7EC"/>
  <text x="400" y="34" text-anchor="middle" fill="#2A1A2E" font-size="18" font-weight="600">AIMD window evolution — tail-drop vs RED</text>
  <text x="400" y="54" text-anchor="middle" fill="#2A1A2E" font-size="12" opacity="0.7">+1 segment/RTT on success · ÷2 on loss · 8 senders share a 1 Gbps link</text>
  <line x1="80" y1="380" x2="760" y2="380" stroke="#2A1A2E" stroke-width="1.5"/>
  <line x1="80" y1="80" x2="80" y2="380" stroke="#2A1A2E" stroke-width="1.5"/>
  <text x="20" y="230" fill="#2A1A2E" font-size="12" transform="rotate(-90 20 230)" text-anchor="middle">cwnd (packets)</text>
  <text x="420" y="430" fill="#2A1A2E" font-size="12" text-anchor="middle">RTT index (each tick = one round-trip)</text>
  <g stroke="#2A1A2E" stroke-width="0.8" opacity="0.35">
    <line x1="80" y1="380" x2="80" y2="384"/>
    <line x1="200" y1="380" x2="200" y2="384"/>
    <line x1="320" y1="380" x2="320" y2="384"/>
    <line x1="440" y1="380" x2="440" y2="384"/>
    <line x1="560" y1="380" x2="560" y2="384"/>
    <line x1="680" y1="380" x2="680" y2="384"/>
    <line x1="760" y1="380" x2="760" y2="384"/>
  </g>
  <text x="80"  y="398" fill="#2A1A2E" font-size="10" text-anchor="middle">0</text>
  <text x="200" y="398" fill="#2A1A2E" font-size="10" text-anchor="middle">10</text>
  <text x="320" y="398" fill="#2A1A2E" font-size="10" text-anchor="middle">20</text>
  <text x="440" y="398" fill="#2A1A2E" font-size="10" text-anchor="middle">30</text>
  <text x="560" y="398" fill="#2A1A2E" font-size="10" text-anchor="middle">40</text>
  <text x="680" y="398" fill="#2A1A2E" font-size="10" text-anchor="middle">50</text>
  <text x="760" y="398" fill="#2A1A2E" font-size="10" text-anchor="middle">57</text>
  <g stroke="#2A1A2E" stroke-width="0.8" opacity="0.35">
    <line x1="76" y1="80"  x2="80" y2="80"/>
    <line x1="76" y1="155" x2="80" y2="155"/>
    <line x1="76" y1="230" x2="80" y2="230"/>
    <line x1="76" y1="305" x2="80" y2="305"/>
    <line x1="76" y1="380" x2="80" y2="380"/>
  </g>
  <text x="72" y="84"  fill="#2A1A2E" font-size="10" text-anchor="end">40</text>
  <text x="72" y="159" fill="#2A1A2E" font-size="10" text-anchor="end">30</text>
  <text x="72" y="234" fill="#2A1A2E" font-size="10" text-anchor="end">20</text>
  <text x="72" y="309" fill="#2A1A2E" font-size="10" text-anchor="end">10</text>
  <text x="72" y="384" fill="#2A1A2E" font-size="10" text-anchor="end">0</text>
  <polyline fill="none" stroke="#E2557A" stroke-width="2" opacity="0.85"
    points="80,365 92,355 104,345 116,335 128,325 140,315 152,305 164,295 176,285 188,275 200,265 212,255 224,245 236,235 248,225 260,215 272,205 284,195 296,185 308,260 320,270 332,280 344,320 356,310 368,300 380,290 392,280 404,270 416,260 428,335 440,345 452,355 464,340 476,330 488,320 500,360 512,350 524,340 536,370 548,360 560,350"/>
  <text x="600" y="120" fill="#E2557A" font-size="11" font-weight="600">tail-drop (sender 0)</text>
  <line x1="595" y1="116" x2="660" y2="116" stroke="#E2557A" stroke-width="2" opacity="0.85"/>
  <text x="600" y="150" fill="#2A1A2E" font-size="11" font-weight="600">RED (sender 0)</text>
  <line x1="595" y1="146" x2="660" y2="146" stroke="#2A1A2E" stroke-width="2" opacity="0.85"/>
  <polyline fill="none" stroke="#2A1A2E" stroke-width="1.6" opacity="0.9"
    points="80,365 92,355 104,345 116,335 128,325 140,315 152,305 164,295 176,285 188,275 200,265 212,255 224,245 236,235 248,225 260,215 272,205 284,195 296,185 308,305 320,295 332,285 344,275 356,265 368,255 380,245 392,235 404,225 416,215 428,205 440,195 452,295 464,282 476,335 488,345 500,335 512,325 524,355 536,345 548,335 560,325"/>
  <g opacity="0.45" stroke="#2A1A2E" stroke-dasharray="4 3" stroke-width="1">
    <line x1="80" y1="185" x2="760" y2="185"/>
  </g>
  <text x="755" y="180" fill="#2A1A2E" font-size="10" text-anchor="end" opacity="0.7">buffer cap (40 pkts)</text>
  <g opacity="0.6" stroke="#E2557A" stroke-dasharray="2 3" stroke-width="1">
    <line x1="80" y1="288" x2="760" y2="288"/>
  </g>
  <text x="755" y="283" fill="#E2557A" font-size="10" text-anchor="end" opacity="0.8">max_thresh (RED)</text>
  <g opacity="0.55" stroke="#E2557A" stroke-dasharray="2 3" stroke-width="1">
    <line x1="80" y1="335" x2="760" y2="335"/>
  </g>
  <text x="755" y="330" fill="#E2557A" font-size="10" text-anchor="end" opacity="0.8">min_thresh (RED)</text>
  <g fill="#2A1A2E" opacity="0.55">
    <circle cx="308" cy="260" r="2.2"/>
    <circle cx="344" cy="320" r="2.2"/>
    <circle cx="428" cy="335" r="2.2"/>
    <circle cx="500" cy="360" r="2.2"/>
    <circle cx="536" cy="370" r="2.2"/>
  </g>
  <text x="312" y="252" fill="#2A1A2E" font-size="9" opacity="0.75">loss</text>
  <text x="348" y="312" fill="#2A1A2E" font-size="9" opacity="0.75">loss</text>
  <text x="540" y="365" fill="#2A1A2E" font-size="9" opacity="0.75">loss</text>
  <text x="420" y="455" fill="#2A1A2E" font-size="10" opacity="0.55" text-anchor="middle">Sawtooth: additive increase (+1/RTT), multiplicative decrease (÷2 on loss). Tail-drop teeth are wider; RED spread the drops so the teeth are smaller.</text>
  <text x="80" y="475" fill="#2A1A2E" font-size="9" opacity="0.45">source: code/main.py simulator output · ch.5 §5.3.4 traffic throttling · RFC 2309</text>
</svg>